<svg xmlns="http://www.w3.org/2000/svg" version="1.1" xmlns:xlink="http://www.w3.org/1999/xlink" xmlns:svgjs="http://svgjs.dev/svgjs" viewBox="0 0 800 800" opacity="0.16" width="800" height="800"><g stroke-width="0.75" stroke="hsla(167, 72%, 60%, 1.00)" fill="none"><rect width="5.7894736842105265" height="5.7894736842105265" x="-2.8947368421052633" y="-2.8947368421052633" fill="hsla(167, 72%, 60%, 1.00)" stroke="none"></rect><rect width="5.7894736842105265" height="5.7894736842105265" x="41.54970760233918" y="-2.8947368421052633" fill="hsla(167, 72%, 60%, 1.00)" stroke="none"></rect><rect width="5.7894736842105265" height="5.7894736842105265" x="85.99415204678363" y="-2.8947368421052633" fill="hsla(167, 72%, 60%, 1.00)" stroke="none"></rect><rect width="5.7894736842105265" height="5.7894736842105265" x="130.43859649122805" y="-2.8947368421052633" fill="hsla(167, 72%, 60%, 1.00)" stroke="none"></rect><rect width="5.7894736842105265" height="5.7894736842105265" x="174.8830409356725" y="-2.8947368421052633" fill="hsla(167, 72%, 60%, 1.00)" stroke="none"></rect><rect width="5.7894736842105265" height="5.7894736842105265" x="219.32748538011697" y="-2.8947368421052633" fill="hsla(167, 72%, 60%, 1.00)" stroke="none"></rect><rect width="5.7894736842105265" height="5.7894736842105265" x="263.7719298245614" y="-2.8947368421052633" fill="hsla(167, 72%, 60%, 1.00)" stroke="none"></rect><rect width="5.7894736842105265" height="5.7894736842105265" x="308.2163742690059" y="-2.8947368421052633" fill="hsla(167, 72%, 60%, 1.00)" stroke="none"></rect><rect width="5.7894736842105265" height="5.7894736842105265" x="352.66081871345034" y="-2.8947368421052633" fill="hsla(167, 72%, 60%, 1.00)" stroke="none"></rect><rect width="5.7894736842105265" height="5.7894736842105265" x="397.1052631578948" y="-2.8947368421052633" fill="hsla(167, 72%, 60%, 1.00)" stroke="none"></rect><rect width="5.7894736842105265" height="5.7894736842105265" x="441.54970760233925" y="-2.8947368421052633" fill="hsla(167, 72%, 60%, 1.00)" stroke="none"></rect><rect width="5.7894736842105265" height="5.7894736842105265" x="485.9941520467837" y="-2.8947368421052633" fill="hsla(167, 72%, 60%, 1.00)" stroke="none"></rect><rect width="5.7894736842105265" height="5.7894736842105265" x="530.438596491228" y="-2.8947368421052633" fill="hsla(167, 72%, 60%, 1.00)" stroke="none"></rect><rect width="5.7894736842105265" height="5.7894736842105265" x="574.8830409356725" y="-2.8947368421052633" fill="hsla(167, 72%, 60%, 1.00)" stroke="none"></rect><rect width="5.7894736842105265" height="5.7894736842105265" x="619.327485380117" y="-2.8947368421052633" fill="hsla(167, 72%, 60%, 1.00)" stroke="none"></rect><rect width="5.7894736842105265" height="5.7894736842105265" x="663.7719298245614" y="-2.8947368421052633" fill="hsla(167, 72%, 60%, 1.00)" stroke="none"></rect><rect width="5.7894736842105265" height="5.7894736842105265" x="708.2163742690059" y="-2.8947368421052633" fill="hsla(167, 72%, 60%, 1.00)" stroke="none"></rect><rect width="5.7894736842105265" height="5.7894736842105265" x="752.6608187134503" y="-2.8947368421052633" fill="hsla(167, 72%, 60%, 1.00)" stroke="none"></rect><rect width="5.7894736842105265" height="5.7894736842105265" x="797.1052631578948" y="-2.8947368421052633" fill="hsla(167, 72%, 60%, 1.00)" stroke="none"></rect><rect width="5.7894736842105265" height="5.7894736842105265" x="-2.8947368421052633" y="41.54970760233918" fill="hsla(167, 72%, 60%, 1.00)" stroke="none"></rect><rect width="5.7894736842105265" height="5.7894736842105265" x="41.54970760233918" y="41.54970760233918" fill="hsla(167, 72%, 60%, 1.00)" stroke="none"></rect><rect width="5.7894736842105265" height="5.7894736842105265" x="85.99415204678363" y="41.54970760233918"></rect><rect width="5.7894736842105265" height="5.7894736842105265" x="130.43859649122805" y="41.54970760233918" fill="hsla(167, 72%, 60%, 1.00)" stroke="none"></rect><rect width="5.7894736842105265" height="5.7894736842105265" x="174.8830409356725" y="41.54970760233918" fill="hsla(167, 72%, 60%, 1.00)" stroke="none"></rect><rect width="5.7894736842105265" height="5.7894736842105265" x="219.32748538011697" y="41.54970760233918" fill="hsla(167, 72%, 60%, 1.00)" stroke="none"></rect><rect width="5.7894736842105265" height="5.7894736842105265" x="263.7719298245614" y="41.54970760233918" fill="hsla(167, 72%, 60%, 1.00)" stroke="none"></rect><rect width="5.7894736842105265" height="5.7894736842105265" x="308.2163742690059" y="41.54970760233918" fill="hsla(167, 72%, 60%, 1.00)" stroke="none"></rect><rect width="5.7894736842105265" height="5.7894736842105265" x="352.66081871345034" y="41.54970760233918"></rect><rect width="5.7894736842105265" height="5.7894736842105265" x="397.1052631578948" y="41.54970760233918" fill="hsla(167, 72%, 60%, 1.00)" stroke="none"></rect><rect width="5.7894736842105265" height="5.7894736842105265" x="441.54970760233925" y="41.54970760233918" fill="hsla(167, 72%, 60%, 1.00)" stroke="none"></rect><rect width="5.7894736842105265" height="5.7894736842105265" x="485.9941520467837" y="41.54970760233918" fill="hsla(167, 72%, 60%, 1.00)" stroke="none"></rect><rect width="5.7894736842105265" height="5.7894736842105265" x="530.438596491228" y="41.54970760233918"></rect><rect width="5.7894736842105265" height="5.7894736842105265" x="574.8830409356725" y="41.54970760233918" fill="hsla(167, 72%, 60%, 1.00)" stroke="none"></rect><rect width="5.7894736842105265" height="5.7894736842105265" x="619.327485380117" y="41.54970760233918" fill="hsla(167, 72%, 60%, 1.00)" stroke="none"></rect><rect width="5.7894736842105265" height="5.7894736842105265" x="663.7719298245614" y="41.54970760233918" fill="hsla(167, 72%, 60%, 1.00)" stroke="none"></rect><rect width="5.7894736842105265" height="5.7894736842105265" x="708.2163742690059" y="41.54970760233918" fill="hsla(167, 72%, 60%, 1.00)" stroke="none"></rect><rect width="5.7894736842105265" height="5.7894736842105265" x="752.6608187134503" y="41.54970760233918"></rect><rect width="5.7894736842105265" height="5.7894736842105265" x="797.1052631578948" y="41.54970760233918" fill="hsla(167, 72%, 60%, 1.00)" stroke="none"></rect><rect width="5.7894736842105265" height="5.7894736842105265" x="-2.8947368421052633" y="85.99415204678363" fill="hsla(167, 72%, 60%, 1.00)" stroke="none"></rect><rect width="5.7894736842105265" height="5.7894736842105265" x="41.54970760233918" y="85.99415204678363" fill="hsla(167, 72%, 60%, 1.00)" stroke="none"></rect><rect width="5.7894736842105265" height="5.7894736842105265" x="85.99415204678363" y="85.99415204678363" fill="hsla(167, 72%, 60%, 1.00)" stroke="none"></rect><rect width="5.7894736842105265" height="5.7894736842105265" x="130.43859649122805" y="85.99415204678363"></rect><rect width="5.7894736842105265" height="5.7894736842105265" x="174.8830409356725" y="85.99415204678363" fill="hsla(167, 72%, 60%, 1.00)" stroke="none"></rect><rect width="5.7894736842105265" height="5.7894736842105265" x="219.32748538011697" y="85.99415204678363"></rect><rect width="5.7894736842105265" height="5.7894736842105265" x="263.7719298245614" y="85.99415204678363" fill="hsla(167, 72%, 60%, 1.00)" stroke="none"></rect><rect width="5.7894736842105265" height="5.7894736842105265" x="308.2163742690059" y="85.99415204678363"></rect><rect width="5.7894736842105265" height="5.7894736842105265" x="352.66081871345034" y="85.99415204678363" fill="hsla(167, 72%, 60%, 1.00)" stroke="none"></rect><rect width="5.7894736842105265" height="5.7894736842105265" x="397.1052631578948" y="85.99415204678363" fill="hsla(167, 72%, 60%, 1.00)" stroke="none"></rect><rect width="5.7894736842105265" height="5.7894736842105265" x="441.54970760233925" y="85.99415204678363" fill="hsla(167, 72%, 60%, 1.00)" stroke="none"></rect><rect width="5.7894736842105265" height="5.7894736842105265" x="485.9941520467837" y="85.99415204678363" fill="hsla(167, 72%, 60%, 1.00)" stroke="none"></rect><rect width="5.7894736842105265" height="5.7894736842105265" x="530.438596491228" y="85.99415204678363" fill="hsla(167, 72%, 60%, 1.00)" stroke="none"></rect><rect width="5.7894736842105265" height="5.7894736842105265" x="574.8830409356725" y="85.99415204678363" fill="hsla(167, 72%, 60%, 1.00)" stroke="none"></rect><rect width="5.7894736842105265" height="5.7894736842105265" x="619.327485380117" y="85.99415204678363" fill="hsla(167, 72%, 60%, 1.00)" stroke="none"></rect><rect width="5.7894736842105265" height="5.7894736842105265" x="663.7719298245614" y="85.99415204678363" fill="hsla(167, 72%, 60%, 1.00)" stroke="none"></rect><rect width="5.7894736842105265" height="5.7894736842105265" x="708.2163742690059" y="85.99415204678363" fill="hsla(167, 72%, 60%, 1.00)" stroke="none"></rect><rect width="5.7894736842105265" height="5.7894736842105265" x="752.6608187134503" y="85.99415204678363"></rect><rect width="5.7894736842105265" height="5.7894736842105265" x="797.1052631578948" y="85.99415204678363" fill="hsla(167, 72%, 60%, 1.00)" stroke="none"></rect><rect width="5.7894736842105265" height="5.7894736842105265" x="-2.8947368421052633" y="130.43859649122805" fill="hsla(167, 72%, 60%, 1.00)" stroke="none"></rect><rect width="5.7894736842105265" height="5.7894736842105265" x="41.54970760233918" y="130.43859649122805" fill="hsla(167, 72%, 60%, 1.00)" stroke="none"></rect><rect width="5.7894736842105265" height="5.7894736842105265" x="85.99415204678363" y="130.43859649122805" fill="hsla(167, 72%, 60%, 1.00)" stroke="none"></rect><rect width="5.7894736842105265" height="5.7894736842105265" x="130.43859649122805" y="130.43859649122805" fill="hsla(167, 72%, 60%, 1.00)" stroke="none"></rect><rect width="5.7894736842105265" height="5.7894736842105265" x="174.8830409356725" y="130.43859649122805" fill="hsla(167, 72%, 60%, 1.00)" stroke="none"></rect><rect width="5.7894736842105265" height="5.7894736842105265" x="219.32748538011697" y="130.43859649122805"></rect><rect width="5.7894736842105265" height="5.7894736842105265" x="263.7719298245614" y="130.43859649122805" fill="hsla(167, 72%, 60%, 1.00)" stroke="none"></rect><rect width="5.7894736842105265" height="5.7894736842105265" x="308.2163742690059" y="130.43859649122805"></rect><rect width="5.7894736842105265" height="5.7894736842105265" x="352.66081871345034" y="130.43859649122805" fill="hsla(167, 72%, 60%, 1.00)" stroke="none"></rect><rect width="5.7894736842105265" height="5.7894736842105265" x="397.1052631578948" y="130.43859649122805"></rect><rect width="5.7894736842105265" height="5.7894736842105265" x="441.54970760233925" y="130.43859649122805" fill="hsla(167, 72%, 60%, 1.00)" stroke="none"></rect><rect width="5.7894736842105265" height="5.7894736842105265" x="485.9941520467837" y="130.43859649122805" fill="hsla(167, 72%, 60%, 1.00)" stroke="none"></rect><rect width="5.7894736842105265" height="5.7894736842105265" x="530.438596491228" y="130.43859649122805" fill="hsla(167, 72%, 60%, 1.00)" stroke="none"></rect><rect width="5.7894736842105265" height="5.7894736842105265" x="574.8830409356725" y="130.43859649122805"></rect><rect width="5.7894736842105265" height="5.7894736842105265" x="619.327485380117" y="130.43859649122805" fill="hsla(167, 72%, 60%, 1.00)" stroke="none"></rect><rect width="5.7894736842105265" height="5.7894736842105265" x="663.7719298245614" y="130.43859649122805"></rect><rect width="5.7894736842105265" height="5.7894736842105265" x="708.2163742690059" y="130.43859649122805" fill="hsla(167, 72%, 60%, 1.00)" stroke="none"></rect><rect width="5.7894736842105265" height="5.7894736842105265" x="752.6608187134503" y="130.43859649122805"></rect><rect width="5.7894736842105265" height="5.7894736842105265" x="797.1052631578948" y="130.43859649122805" fill="hsla(167, 72%, 60%, 1.00)" stroke="none"></rect><rect width="5.7894736842105265" height="5.7894736842105265" x="-2.8947368421052633" y="174.8830409356725" fill="hsla(167, 72%, 60%, 1.00)" stroke="none"></rect><rect width="5.7894736842105265" height="5.7894736842105265" x="41.54970760233918" y="174.8830409356725" fill="hsla(167, 72%, 60%, 1.00)" stroke="none"></rect><rect width="5.7894736842105265" height="5.7894736842105265" x="85.99415204678363" y="174.8830409356725" fill="hsla(167, 72%, 60%, 1.00)" stroke="none"></rect><rect width="5.7894736842105265" height="5.7894736842105265" x="130.43859649122805" y="174.8830409356725"></rect><rect width="5.7894736842105265" height="5.7894736842105265" x="174.8830409356725" y="174.8830409356725" fill="hsla(167, 72%, 60%, 1.00)" stroke="none"></rect><rect width="5.7894736842105265" height="5.7894736842105265" x="219.32748538011697" y="174.8830409356725" fill="hsla(167, 72%, 60%, 1.00)" stroke="none"></rect><rect width="5.7894736842105265" height="5.7894736842105265" x="263.7719298245614" y="174.8830409356725" fill="hsla(167, 72%, 60%, 1.00)" stroke="none"></rect><rect width="5.7894736842105265" height="5.7894736842105265" x="308.2163742690059" y="174.8830409356725" fill="hsla(167, 72%, 60%, 1.00)" stroke="none"></rect><rect width="5.7894736842105265" height="5.7894736842105265" x="352.66081871345034" y="174.8830409356725" fill="hsla(167, 72%, 60%, 1.00)" stroke="none"></rect><rect width="5.7894736842105265" height="5.7894736842105265" x="397.1052631578948" y="174.8830409356725" fill="hsla(167, 72%, 60%, 1.00)" stroke="none"></rect><rect width="5.7894736842105265" height="5.7894736842105265" x="441.54970760233925" y="174.8830409356725"></rect><rect width="5.7894736842105265" height="5.7894736842105265" x="485.9941520467837" y="174.8830409356725" fill="hsla(167, 72%, 60%, 1.00)" stroke="none"></rect><rect width="5.7894736842105265" height="5.7894736842105265" x="530.438596491228" y="174.8830409356725" fill="hsla(167, 72%, 60%, 1.00)" stroke="none"></rect><rect width="5.7894736842105265" height="5.7894736842105265" x="574.8830409356725" y="174.8830409356725" fill="hsla(167, 72%, 60%, 1.00)" stroke="none"></rect><rect width="5.7894736842105265" height="5.7894736842105265" x="619.327485380117" y="174.8830409356725" fill="hsla(167, 72%, 60%, 1.00)" stroke="none"></rect><rect width="5.7894736842105265" height="5.7894736842105265" x="663.7719298245614" y="174.8830409356725" fill="hsla(167, 72%, 60%, 1.00)" stroke="none"></rect><rect width="5.7894736842105265" height="5.7894736842105265" x="708.2163742690059" y="174.8830409356725"></rect><rect width="5.7894736842105265" height="5.7894736842105265" x="752.6608187134503" y="174.8830409356725" fill="hsla(167, 72%, 60%, 1.00)" stroke="none"></rect><rect width="5.7894736842105265" height="5.7894736842105265" x="797.1052631578948" y="174.8830409356725" fill="hsla(167, 72%, 60%, 1.00)" stroke="none"></rect><rect width="5.7894736842105265" height="5.7894736842105265" x="-2.8947368421052633" y="219.32748538011697" fill="hsla(167, 72%, 60%, 1.00)" stroke="none"></rect><rect width="5.7894736842105265" height="5.7894736842105265" x="41.54970760233918" y="219.32748538011697" fill="hsla(167, 72%, 60%, 1.00)" stroke="none"></rect><rect width="5.7894736842105265" height="5.7894736842105265" x="85.99415204678363" y="219.32748538011697"></rect><rect width="5.7894736842105265" height="5.7894736842105265" x="130.43859649122805" y="219.32748538011697" fill="hsla(167, 72%, 60%, 1.00)" stroke="none"></rect><rect width="5.7894736842105265" height="5.7894736842105265" x="174.8830409356725" y="219.32748538011697" fill="hsla(167, 72%, 60%, 1.00)" stroke="none"></rect><rect width="5.7894736842105265" height="5.7894736842105265" x="219.32748538011697" y="219.32748538011697" fill="hsla(167, 72%, 60%, 1.00)" stroke="none"></rect><rect width="5.7894736842105265" height="5.7894736842105265" x="263.7719298245614" y="219.32748538011697" fill="hsla(167, 72%, 60%, 1.00)" stroke="none"></rect><rect width="5.7894736842105265" height="5.7894736842105265" x="308.2163742690059" y="219.32748538011697" fill="hsla(167, 72%, 60%, 1.00)" stroke="none"></rect><rect width="5.7894736842105265" height="5.7894736842105265" x="352.66081871345034" y="219.32748538011697"></rect><rect width="5.7894736842105265" height="5.7894736842105265" x="397.1052631578948" y="219.32748538011697" fill="hsla(167, 72%, 60%, 1.00)" stroke="none"></rect><rect width="5.7894736842105265" height="5.7894736842105265" x="441.54970760233925" y="219.32748538011697" fill="hsla(167, 72%, 60%, 1.00)" stroke="none"></rect><rect width="5.7894736842105265" height="5.7894736842105265" x="485.9941520467837" y="219.32748538011697" fill="hsla(167, 72%, 60%, 1.00)" stroke="none"></rect><rect width="5.7894736842105265" height="5.7894736842105265" x="530.438596491228" y="219.32748538011697" fill="hsla(167, 72%, 60%, 1.00)" stroke="none"></rect><rect width="5.7894736842105265" height="5.7894736842105265" x="574.8830409356725" y="219.32748538011697" fill="hsla(167, 72%, 60%, 1.00)" stroke="none"></rect><rect width="5.7894736842105265" height="5.7894736842105265" x="619.327485380117" y="219.32748538011697" fill="hsla(167, 72%, 60%, 1.00)" stroke="none"></rect><rect width="5.7894736842105265" height="5.7894736842105265" x="663.7719298245614" y="219.32748538011697" fill="hsla(167, 72%, 60%, 1.00)" stroke="none"></rect><rect width="5.7894736842105265" height="5.7894736842105265" x="708.2163742690059" y="219.32748538011697" fill="hsla(167, 72%, 60%, 1.00)" stroke="none"></rect><rect width="5.7894736842105265" height="5.7894736842105265" x="752.6608187134503" y="219.32748538011697" fill="hsla(167, 72%, 60%, 1.00)" stroke="none"></rect><rect width="5.7894736842105265" height="5.7894736842105265" x="797.1052631578948" y="219.32748538011697" fill="hsla(167, 72%, 60%, 1.00)" stroke="none"></rect><rect width="5.7894736842105265" height="5.7894736842105265" x="-2.8947368421052633" y="263.7719298245614" fill="hsla(167, 72%, 60%, 1.00)" stroke="none"></rect><rect width="5.7894736842105265" height="5.7894736842105265" x="41.54970760233918" y="263.7719298245614" fill="hsla(167, 72%, 60%, 1.00)" stroke="none"></rect><rect width="5.7894736842105265" height="5.7894736842105265" x="85.99415204678363" y="263.7719298245614" fill="hsla(167, 72%, 60%, 1.00)" stroke="none"></rect><rect width="5.7894736842105265" height="5.7894736842105265" x="130.43859649122805" y="263.7719298245614"></rect><rect width="5.7894736842105265" height="5.7894736842105265" x="174.8830409356725" y="263.7719298245614" fill="hsla(167, 72%, 60%, 1.00)" stroke="none"></rect><rect width="5.7894736842105265" height="5.7894736842105265" x="219.32748538011697" y="263.7719298245614" fill="hsla(167, 72%, 60%, 1.00)" stroke="none"></rect><rect width="5.7894736842105265" height="5.7894736842105265" x="263.7719298245614" y="263.7719298245614" fill="hsla(167, 72%, 60%, 1.00)" stroke="none"></rect><rect width="5.7894736842105265" height="5.7894736842105265" x="308.2163742690059" y="263.7719298245614"></rect><rect width="5.7894736842105265" height="5.7894736842105265" x="352.66081871345034" y="263.7719298245614" fill="hsla(167, 72%, 60%, 1.00)" stroke="none"></rect><rect width="5.7894736842105265" height="5.7894736842105265" x="397.1052631578948" y="263.7719298245614" fill="hsla(167, 72%, 60%, 1.00)" stroke="none"></rect><rect width="5.7894736842105265" height="5.7894736842105265" x="441.54970760233925" y="263.7719298245614" fill="hsla(167, 72%, 60%, 1.00)" stroke="none"></rect><rect width="5.7894736842105265" height="5.7894736842105265" x="485.9941520467837" y="263.7719298245614"></rect><rect width="5.7894736842105265" height="5.7894736842105265" x="530.438596491228" y="263.7719298245614" fill="hsla(167, 72%, 60%, 1.00)" stroke="none"></rect><rect width="5.7894736842105265" height="5.7894736842105265" x="574.8830409356725" y="263.7719298245614" fill="hsla(167, 72%, 60%, 1.00)" stroke="none"></rect><rect width="5.7894736842105265" height="5.7894736842105265" x="619.327485380117" y="263.7719298245614"></rect><rect width="5.7894736842105265" height="5.7894736842105265" x="663.7719298245614" y="263.7719298245614"></rect><rect width="5.7894736842105265" height="5.7894736842105265" x="708.2163742690059" y="263.7719298245614"></rect><rect width="5.7894736842105265" height="5.7894736842105265" x="752.6608187134503" y="263.7719298245614"></rect><rect width="5.7894736842105265" height="5.7894736842105265" x="797.1052631578948" y="263.7719298245614" fill="hsla(167, 72%, 60%, 1.00)" stroke="none"></rect><rect width="5.7894736842105265" height="5.7894736842105265" x="-2.8947368421052633" y="308.2163742690059" fill="hsla(167, 72%, 60%, 1.00)" stroke="none"></rect><rect width="5.7894736842105265" height="5.7894736842105265" x="41.54970760233918" y="308.2163742690059" fill="hsla(167, 72%, 60%, 1.00)" stroke="none"></rect><rect width="5.7894736842105265" height="5.7894736842105265" x="85.99415204678363" y="308.2163742690059" fill="hsla(167, 72%, 60%, 1.00)" stroke="none"></rect><rect width="5.7894736842105265" height="5.7894736842105265" x="130.43859649122805" y="308.2163742690059" fill="hsla(167, 72%, 60%, 1.00)" stroke="none"></rect><rect width="5.7894736842105265" height="5.7894736842105265" x="174.8830409356725" y="308.2163742690059" fill="hsla(167, 72%, 60%, 1.00)" stroke="none"></rect><rect width="5.7894736842105265" height="5.7894736842105265" x="219.32748538011697" y="308.2163742690059"></rect><rect width="5.7894736842105265" height="5.7894736842105265" x="263.7719298245614" y="308.2163742690059" fill="hsla(167, 72%, 60%, 1.00)" stroke="none"></rect><rect width="5.7894736842105265" height="5.7894736842105265" x="308.2163742690059" y="308.2163742690059"></rect><rect width="5.7894736842105265" height="5.7894736842105265" x="352.66081871345034" y="308.2163742690059" fill="hsla(167, 72%, 60%, 1.00)" stroke="none"></rect><rect width="5.7894736842105265" height="5.7894736842105265" x="397.1052631578948" y="308.2163742690059" fill="hsla(167, 72%, 60%, 1.00)" stroke="none"></rect><rect width="5.7894736842105265" height="5.7894736842105265" x="441.54970760233925" y="308.2163742690059" fill="hsla(167, 72%, 60%, 1.00)" stroke="none"></rect><rect width="5.7894736842105265" height="5.7894736842105265" x="485.9941520467837" y="308.2163742690059"></rect><rect width="5.7894736842105265" height="5.7894736842105265" x="530.438596491228" y="308.2163742690059"></rect><rect width="5.7894736842105265" height="5.7894736842105265" x="574.8830409356725" y="308.2163742690059"></rect><rect width="5.7894736842105265" height="5.7894736842105265" x="619.327485380117" y="308.2163742690059" fill="hsla(167, 72%, 60%, 1.00)" stroke="none"></rect><rect width="5.7894736842105265" height="5.7894736842105265" x="663.7719298245614" y="308.2163742690059" fill="hsla(167, 72%, 60%, 1.00)" stroke="none"></rect><rect width="5.7894736842105265" height="5.7894736842105265" x="708.2163742690059" y="308.2163742690059" fill="hsla(167, 72%, 60%, 1.00)" stroke="none"></rect><rect width="5.7894736842105265" height="5.7894736842105265" x="752.6608187134503" y="308.2163742690059"></rect><rect width="5.7894736842105265" height="5.7894736842105265" x="797.1052631578948" y="308.2163742690059" fill="hsla(167, 72%, 60%, 1.00)" stroke="none"></rect><rect width="5.7894736842105265" height="5.7894736842105265" x="-2.8947368421052633" y="352.66081871345034" fill="hsla(167, 72%, 60%, 1.00)" stroke="none"></rect><rect width="5.7894736842105265" height="5.7894736842105265" x="41.54970760233918" y="352.66081871345034" fill="hsla(167, 72%, 60%, 1.00)" stroke="none"></rect><rect width="5.7894736842105265" height="5.7894736842105265" x="85.99415204678363" y="352.66081871345034" fill="hsla(167, 72%, 60%, 1.00)" stroke="none"></rect><rect width="5.7894736842105265" height="5.7894736842105265" x="130.43859649122805" y="352.66081871345034" fill="hsla(167, 72%, 60%, 1.00)" stroke="none"></rect><rect width="5.7894736842105265" height="5.7894736842105265" x="174.8830409356725" y="352.66081871345034" fill="hsla(167, 72%, 60%, 1.00)" stroke="none"></rect><rect width="5.7894736842105265" height="5.7894736842105265" x="219.32748538011697" y="352.66081871345034" fill="hsla(167, 72%, 60%, 1.00)" stroke="none"></rect><rect width="5.7894736842105265" height="5.7894736842105265" x="263.7719298245614" y="352.66081871345034" fill="hsla(167, 72%, 60%, 1.00)" stroke="none"></rect><rect width="5.7894736842105265" height="5.7894736842105265" x="308.2163742690059" y="352.66081871345034"></rect><rect width="5.7894736842105265" height="5.7894736842105265" x="352.66081871345034" y="352.66081871345034" fill="hsla(167, 72%, 60%, 1.00)" stroke="none"></rect><rect width="5.7894736842105265" height="5.7894736842105265" x="397.1052631578948" y="352.66081871345034" fill="hsla(167, 72%, 60%, 1.00)" stroke="none"></rect><rect width="5.7894736842105265" height="5.7894736842105265" x="441.54970760233925" y="352.66081871345034" fill="hsla(167, 72%, 60%, 1.00)" stroke="none"></rect><rect width="5.7894736842105265" height="5.7894736842105265" x="485.9941520467837" y="352.66081871345034"></rect><rect width="5.7894736842105265" height="5.7894736842105265" x="530.438596491228" y="352.66081871345034" fill="hsla(167, 72%, 60%, 1.00)" stroke="none"></rect><rect width="5.7894736842105265" height="5.7894736842105265" x="574.8830409356725" y="352.66081871345034" fill="hsla(167, 72%, 60%, 1.00)" stroke="none"></rect><rect width="5.7894736842105265" height="5.7894736842105265" x="619.327485380117" y="352.66081871345034" fill="hsla(167, 72%, 60%, 1.00)" stroke="none"></rect><rect width="5.7894736842105265" height="5.7894736842105265" x="663.7719298245614" y="352.66081871345034" fill="hsla(167, 72%, 60%, 1.00)" stroke="none"></rect><rect width="5.7894736842105265" height="5.7894736842105265" x="708.2163742690059" y="352.66081871345034" fill="hsla(167, 72%, 60%, 1.00)" stroke="none"></rect><rect width="5.7894736842105265" height="5.7894736842105265" x="752.6608187134503" y="352.66081871345034" fill="hsla(167, 72%, 60%, 1.00)" stroke="none"></rect><rect width="5.7894736842105265" height="5.7894736842105265" x="797.1052631578948" y="352.66081871345034" fill="hsla(167, 72%, 60%, 1.00)" stroke="none"></rect><rect width="5.7894736842105265" height="5.7894736842105265" x="-2.8947368421052633" y="397.1052631578948" fill="hsla(167, 72%, 60%, 1.00)" stroke="none"></rect><rect width="5.7894736842105265" height="5.7894736842105265" x="41.54970760233918" y="397.1052631578948" fill="hsla(167, 72%, 60%, 1.00)" stroke="none"></rect><rect width="5.7894736842105265" height="5.7894736842105265" x="85.99415204678363" y="397.1052631578948"></rect><rect width="5.7894736842105265" height="5.7894736842105265" x="130.43859649122805" y="397.1052631578948" fill="hsla(167, 72%, 60%, 1.00)" stroke="none"></rect><rect width="5.7894736842105265" height="5.7894736842105265" x="174.8830409356725" y="397.1052631578948" fill="hsla(167, 72%, 60%, 1.00)" stroke="none"></rect><rect width="5.7894736842105265" height="5.7894736842105265" x="219.32748538011697" y="397.1052631578948" fill="hsla(167, 72%, 60%, 1.00)" stroke="none"></rect><rect width="5.7894736842105265" height="5.7894736842105265" x="263.7719298245614" y="397.1052631578948" fill="hsla(167, 72%, 60%, 1.00)" stroke="none"></rect><rect width="5.7894736842105265" height="5.7894736842105265" x="308.2163742690059" y="397.1052631578948" fill="hsla(167, 72%, 60%, 1.00)" stroke="none"></rect><rect width="5.7894736842105265" height="5.7894736842105265" x="352.66081871345034" y="397.1052631578948"></rect><rect width="5.7894736842105265" height="5.7894736842105265" x="397.1052631578948" y="397.1052631578948" fill="hsla(167, 72%, 60%, 1.00)" stroke="none"></rect><rect width="5.7894736842105265" height="5.7894736842105265" x="441.54970760233925" y="397.1052631578948"></rect><rect width="5.7894736842105265" height="5.7894736842105265" x="485.9941520467837" y="397.1052631578948" fill="hsla(167, 72%, 60%, 1.00)" stroke="none"></rect><rect width="5.7894736842105265" height="5.7894736842105265" x="530.438596491228" y="397.1052631578948" fill="hsla(167, 72%, 60%, 1.00)" stroke="none"></rect><rect width="5.7894736842105265" height="5.7894736842105265" x="574.8830409356725" y="397.1052631578948" fill="hsla(167, 72%, 60%, 1.00)" stroke="none"></rect><rect width="5.7894736842105265" height="5.7894736842105265" x="619.327485380117" y="397.1052631578948" fill="hsla(167, 72%, 60%, 1.00)" stroke="none"></rect><rect width="5.7894736842105265" height="5.7894736842105265" x="663.7719298245614" y="397.1052631578948" fill="hsla(167, 72%, 60%, 1.00)" stroke="none"></rect><rect width="5.7894736842105265" height="5.7894736842105265" x="708.2163742690059" y="397.1052631578948" fill="hsla(167, 72%, 60%, 1.00)" stroke="none"></rect><rect width="5.7894736842105265" height="5.7894736842105265" x="752.6608187134503" y="397.1052631578948" fill="hsla(167, 72%, 60%, 1.00)" stroke="none"></rect><rect width="5.7894736842105265" height="5.7894736842105265" x="797.1052631578948" y="397.1052631578948" fill="hsla(167, 72%, 60%, 1.00)" stroke="none"></rect><rect width="5.7894736842105265" height="5.7894736842105265" x="-2.8947368421052633" y="441.54970760233925" fill="hsla(167, 72%, 60%, 1.00)" stroke="none"></rect><rect width="5.7894736842105265" height="5.7894736842105265" x="41.54970760233918" y="441.54970760233925" fill="hsla(167, 72%, 60%, 1.00)" stroke="none"></rect><rect width="5.7894736842105265" height="5.7894736842105265" x="85.99415204678363" y="441.54970760233925" fill="hsla(167, 72%, 60%, 1.00)" stroke="none"></rect><rect width="5.7894736842105265" height="5.7894736842105265" x="130.43859649122805" y="441.54970760233925"></rect><rect width="5.7894736842105265" height="5.7894736842105265" x="174.8830409356725" y="441.54970760233925" fill="hsla(167, 72%, 60%, 1.00)" stroke="none"></rect><rect width="5.7894736842105265" height="5.7894736842105265" x="219.32748538011697" y="441.54970760233925"></rect><rect width="5.7894736842105265" height="5.7894736842105265" x="263.7719298245614" y="441.54970760233925" fill="hsla(167, 72%, 60%, 1.00)" stroke="none"></rect><rect width="5.7894736842105265" height="5.7894736842105265" x="308.2163742690059" y="441.54970760233925" fill="hsla(167, 72%, 60%, 1.00)" stroke="none"></rect><rect width="5.7894736842105265" height="5.7894736842105265" x="352.66081871345034" y="441.54970760233925" fill="hsla(167, 72%, 60%, 1.00)" stroke="none"></rect><rect width="5.7894736842105265" height="5.7894736842105265" x="397.1052631578948" y="441.54970760233925" fill="hsla(167, 72%, 60%, 1.00)" stroke="none"></rect><rect width="5.7894736842105265" height="5.7894736842105265" x="441.54970760233925" y="441.54970760233925" fill="hsla(167, 72%, 60%, 1.00)" stroke="none"></rect><rect width="5.7894736842105265" height="5.7894736842105265" x="485.9941520467837" y="441.54970760233925" fill="hsla(167, 72%, 60%, 1.00)" stroke="none"></rect><rect width="5.7894736842105265" height="5.7894736842105265" x="530.438596491228" y="441.54970760233925" fill="hsla(167, 72%, 60%, 1.00)" stroke="none"></rect><rect width="5.7894736842105265" height="5.7894736842105265" x="574.8830409356725" y="441.54970760233925" fill="hsla(167, 72%, 60%, 1.00)" stroke="none"></rect><rect width="5.7894736842105265" height="5.7894736842105265" x="619.327485380117" y="441.54970760233925"></rect><rect width="5.7894736842105265" height="5.7894736842105265" x="663.7719298245614" y="441.54970760233925"></rect><rect width="5.7894736842105265" height="5.7894736842105265" x="708.2163742690059" y="441.54970760233925" fill="hsla(167, 72%, 60%, 1.00)" stroke="none"></rect><rect width="5.7894736842105265" height="5.7894736842105265" x="752.6608187134503" y="441.54970760233925"></rect><rect width="5.7894736842105265" height="5.7894736842105265" x="797.1052631578948" y="441.54970760233925" fill="hsla(167, 72%, 60%, 1.00)" stroke="none"></rect><rect width="5.7894736842105265" height="5.7894736842105265" x="-2.8947368421052633" y="485.9941520467837" fill="hsla(167, 72%, 60%, 1.00)" stroke="none"></rect><rect width="5.7894736842105265" height="5.7894736842105265" x="41.54970760233918" y="485.9941520467837" fill="hsla(167, 72%, 60%, 1.00)" stroke="none"></rect><rect width="5.7894736842105265" height="5.7894736842105265" x="85.99415204678363" y="485.9941520467837" fill="hsla(167, 72%, 60%, 1.00)" stroke="none"></rect><rect width="5.7894736842105265" height="5.7894736842105265" x="130.43859649122805" y="485.9941520467837"></rect><rect width="5.7894736842105265" height="5.7894736842105265" x="174.8830409356725" y="485.9941520467837" fill="hsla(167, 72%, 60%, 1.00)" stroke="none"></rect><rect width="5.7894736842105265" height="5.7894736842105265" x="219.32748538011697" y="485.9941520467837" fill="hsla(167, 72%, 60%, 1.00)" stroke="none"></rect><rect width="5.7894736842105265" height="5.7894736842105265" x="263.7719298245614" y="485.9941520467837" fill="hsla(167, 72%, 60%, 1.00)" stroke="none"></rect><rect width="5.7894736842105265" height="5.7894736842105265" x="308.2163742690059" y="485.9941520467837" fill="hsla(167, 72%, 60%, 1.00)" stroke="none"></rect><rect width="5.7894736842105265" height="5.7894736842105265" x="352.66081871345034" y="485.9941520467837"></rect><rect width="5.7894736842105265" height="5.7894736842105265" x="397.1052631578948" y="485.9941520467837"></rect><rect width="5.7894736842105265" height="5.7894736842105265" x="441.54970760233925" y="485.9941520467837" fill="hsla(167, 72%, 60%, 1.00)" stroke="none"></rect><rect width="5.7894736842105265" height="5.7894736842105265" x="485.9941520467837" y="485.9941520467837" fill="hsla(167, 72%, 60%, 1.00)" stroke="none"></rect><rect width="5.7894736842105265" height="5.7894736842105265" x="530.438596491228" y="485.9941520467837" fill="hsla(167, 72%, 60%, 1.00)" stroke="none"></rect><rect width="5.7894736842105265" height="5.7894736842105265" x="574.8830409356725" y="485.9941520467837" fill="hsla(167, 72%, 60%, 1.00)" stroke="none"></rect><rect width="5.7894736842105265" height="5.7894736842105265" x="619.327485380117" y="485.9941520467837"></rect><rect width="5.7894736842105265" height="5.7894736842105265" x="663.7719298245614" y="485.9941520467837" fill="hsla(167, 72%, 60%, 1.00)" stroke="none"></rect><rect width="5.7894736842105265" height="5.7894736842105265" x="708.2163742690059" y="485.9941520467837" fill="hsla(167, 72%, 60%, 1.00)" stroke="none"></rect><rect width="5.7894736842105265" height="5.7894736842105265" x="752.6608187134503" y="485.9941520467837"></rect><rect width="5.7894736842105265" height="5.7894736842105265" x="797.1052631578948" y="485.9941520467837" fill="hsla(167, 72%, 60%, 1.00)" stroke="none"></rect><rect width="5.7894736842105265" height="5.7894736842105265" x="-2.8947368421052633" y="530.438596491228" fill="hsla(167, 72%, 60%, 1.00)" stroke="none"></rect><rect width="5.7894736842105265" height="5.7894736842105265" x="41.54970760233918" y="530.438596491228"></rect><rect width="5.7894736842105265" height="5.7894736842105265" x="85.99415204678363" y="530.438596491228"></rect><rect width="5.7894736842105265" height="5.7894736842105265" x="130.43859649122805" y="530.438596491228" fill="hsla(167, 72%, 60%, 1.00)" stroke="none"></rect><rect width="5.7894736842105265" height="5.7894736842105265" x="174.8830409356725" y="530.438596491228" fill="hsla(167, 72%, 60%, 1.00)" stroke="none"></rect><rect width="5.7894736842105265" height="5.7894736842105265" x="219.32748538011697" y="530.438596491228" fill="hsla(167, 72%, 60%, 1.00)" stroke="none"></rect><rect width="5.7894736842105265" height="5.7894736842105265" x="263.7719298245614" y="530.438596491228" fill="hsla(167, 72%, 60%, 1.00)" stroke="none"></rect><rect width="5.7894736842105265" height="5.7894736842105265" x="308.2163742690059" y="530.438596491228" fill="hsla(167, 72%, 60%, 1.00)" stroke="none"></rect><rect width="5.7894736842105265" height="5.7894736842105265" x="352.66081871345034" y="530.438596491228" fill="hsla(167, 72%, 60%, 1.00)" stroke="none"></rect><rect width="5.7894736842105265" height="5.7894736842105265" x="397.1052631578948" y="530.438596491228" fill="hsla(167, 72%, 60%, 1.00)" stroke="none"></rect><rect width="5.7894736842105265" height="5.7894736842105265" x="441.54970760233925" y="530.438596491228" fill="hsla(167, 72%, 60%, 1.00)" stroke="none"></rect><rect width="5.7894736842105265" height="5.7894736842105265" x="485.9941520467837" y="530.438596491228"></rect><rect width="5.7894736842105265" height="5.7894736842105265" x="530.438596491228" y="530.438596491228" fill="hsla(167, 72%, 60%, 1.00)" stroke="none"></rect><rect width="5.7894736842105265" height="5.7894736842105265" x="574.8830409356725" y="530.438596491228" fill="hsla(167, 72%, 60%, 1.00)" stroke="none"></rect><rect width="5.7894736842105265" height="5.7894736842105265" x="619.327485380117" y="530.438596491228" fill="hsla(167, 72%, 60%, 1.00)" stroke="none"></rect><rect width="5.7894736842105265" height="5.7894736842105265" x="663.7719298245614" y="530.438596491228"></rect><rect width="5.7894736842105265" height="5.7894736842105265" x="708.2163742690059" y="530.438596491228" fill="hsla(167, 72%, 60%, 1.00)" stroke="none"></rect><rect width="5.7894736842105265" height="5.7894736842105265" x="752.6608187134503" y="530.438596491228" fill="hsla(167, 72%, 60%, 1.00)" stroke="none"></rect><rect width="5.7894736842105265" height="5.7894736842105265" x="797.1052631578948" y="530.438596491228" fill="hsla(167, 72%, 60%, 1.00)" stroke="none"></rect><rect width="5.7894736842105265" height="5.7894736842105265" x="-2.8947368421052633" y="574.8830409356725" fill="hsla(167, 72%, 60%, 1.00)" stroke="none"></rect><rect width="5.7894736842105265" height="5.7894736842105265" x="41.54970760233918" y="574.8830409356725"></rect><rect width="5.7894736842105265" height="5.7894736842105265" x="85.99415204678363" y="574.8830409356725" fill="hsla(167, 72%, 60%, 1.00)" stroke="none"></rect><rect width="5.7894736842105265" height="5.7894736842105265" x="130.43859649122805" y="574.8830409356725" fill="hsla(167, 72%, 60%, 1.00)" stroke="none"></rect><rect width="5.7894736842105265" height="5.7894736842105265" x="174.8830409356725" y="574.8830409356725" fill="hsla(167, 72%, 60%, 1.00)" stroke="none"></rect><rect width="5.7894736842105265" height="5.7894736842105265" x="219.32748538011697" y="574.8830409356725" fill="hsla(167, 72%, 60%, 1.00)" stroke="none"></rect><rect width="5.7894736842105265" height="5.7894736842105265" x="263.7719298245614" y="574.8830409356725" fill="hsla(167, 72%, 60%, 1.00)" stroke="none"></rect><rect width="5.7894736842105265" height="5.7894736842105265" x="308.2163742690059" y="574.8830409356725"></rect><rect width="5.7894736842105265" height="5.7894736842105265" x="352.66081871345034" y="574.8830409356725" fill="hsla(167, 72%, 60%, 1.00)" stroke="none"></rect><rect width="5.7894736842105265" height="5.7894736842105265" x="397.1052631578948" y="574.8830409356725" fill="hsla(167, 72%, 60%, 1.00)" stroke="none"></rect><rect width="5.7894736842105265" height="5.7894736842105265" x="441.54970760233925" y="574.8830409356725"></rect><rect width="5.7894736842105265" height="5.7894736842105265" x="485.9941520467837" y="574.8830409356725" fill="hsla(167, 72%, 60%, 1.00)" stroke="none"></rect><rect width="5.7894736842105265" height="5.7894736842105265" x="530.438596491228" y="574.8830409356725"></rect><rect width="5.7894736842105265" height="5.7894736842105265" x="574.8830409356725" y="574.8830409356725" fill="hsla(167, 72%, 60%, 1.00)" stroke="none"></rect><rect width="5.7894736842105265" height="5.7894736842105265" x="619.327485380117" y="574.8830409356725" fill="hsla(167, 72%, 60%, 1.00)" stroke="none"></rect><rect width="5.7894736842105265" height="5.7894736842105265" x="663.7719298245614" y="574.8830409356725"></rect><rect width="5.7894736842105265" height="5.7894736842105265" x="708.2163742690059" y="574.8830409356725"></rect><rect width="5.7894736842105265" height="5.7894736842105265" x="752.6608187134503" y="574.8830409356725"></rect><rect width="5.7894736842105265" height="5.7894736842105265" x="797.1052631578948" y="574.8830409356725" fill="hsla(167, 72%, 60%, 1.00)" stroke="none"></rect><rect width="5.7894736842105265" height="5.7894736842105265" x="-2.8947368421052633" y="619.327485380117" fill="hsla(167, 72%, 60%, 1.00)" stroke="none"></rect><rect width="5.7894736842105265" height="5.7894736842105265" x="41.54970760233918" y="619.327485380117"></rect><rect width="5.7894736842105265" height="5.7894736842105265" x="85.99415204678363" y="619.327485380117"></rect><rect width="5.7894736842105265" height="5.7894736842105265" x="130.43859649122805" y="619.327485380117" fill="hsla(167, 72%, 60%, 1.00)" stroke="none"></rect><rect width="5.7894736842105265" height="5.7894736842105265" x="174.8830409356725" y="619.327485380117"></rect><rect width="5.7894736842105265" height="5.7894736842105265" x="219.32748538011697" y="619.327485380117"></rect><rect width="5.7894736842105265" height="5.7894736842105265" x="263.7719298245614" y="619.327485380117" fill="hsla(167, 72%, 60%, 1.00)" stroke="none"></rect><rect width="5.7894736842105265" height="5.7894736842105265" x="308.2163742690059" y="619.327485380117"></rect><rect width="5.7894736842105265" height="5.7894736842105265" x="352.66081871345034" y="619.327485380117" fill="hsla(167, 72%, 60%, 1.00)" stroke="none"></rect><rect width="5.7894736842105265" height="5.7894736842105265" x="397.1052631578948" y="619.327485380117" fill="hsla(167, 72%, 60%, 1.00)" stroke="none"></rect><rect width="5.7894736842105265" height="5.7894736842105265" x="441.54970760233925" y="619.327485380117" fill="hsla(167, 72%, 60%, 1.00)" stroke="none"></rect><rect width="5.7894736842105265" height="5.7894736842105265" x="485.9941520467837" y="619.327485380117" fill="hsla(167, 72%, 60%, 1.00)" stroke="none"></rect><rect width="5.7894736842105265" height="5.7894736842105265" x="530.438596491228" y="619.327485380117"></rect><rect width="5.7894736842105265" height="5.7894736842105265" x="574.8830409356725" y="619.327485380117" fill="hsla(167, 72%, 60%, 1.00)" stroke="none"></rect><rect width="5.7894736842105265" height="5.7894736842105265" x="619.327485380117" y="619.327485380117" fill="hsla(167, 72%, 60%, 1.00)" stroke="none"></rect><rect width="5.7894736842105265" height="5.7894736842105265" x="663.7719298245614" y="619.327485380117" fill="hsla(167, 72%, 60%, 1.00)" stroke="none"></rect><rect width="5.7894736842105265" height="5.7894736842105265" x="708.2163742690059" y="619.327485380117"></rect><rect width="5.7894736842105265" height="5.7894736842105265" x="752.6608187134503" y="619.327485380117"></rect><rect width="5.7894736842105265" height="5.7894736842105265" x="797.1052631578948" y="619.327485380117" fill="hsla(167, 72%, 60%, 1.00)" stroke="none"></rect><rect width="5.7894736842105265" height="5.7894736842105265" x="-2.8947368421052633" y="663.7719298245614" fill="hsla(167, 72%, 60%, 1.00)" stroke="none"></rect><rect width="5.7894736842105265" height="5.7894736842105265" x="41.54970760233918" y="663.7719298245614" fill="hsla(167, 72%, 60%, 1.00)" stroke="none"></rect><rect width="5.7894736842105265" height="5.7894736842105265" x="85.99415204678363" y="663.7719298245614" fill="hsla(167, 72%, 60%, 1.00)" stroke="none"></rect><rect width="5.7894736842105265" height="5.7894736842105265" x="130.43859649122805" y="663.7719298245614" fill="hsla(167, 72%, 60%, 1.00)" stroke="none"></rect><rect width="5.7894736842105265" height="5.7894736842105265" x="174.8830409356725" y="663.7719298245614" fill="hsla(167, 72%, 60%, 1.00)" stroke="none"></rect><rect width="5.7894736842105265" height="5.7894736842105265" x="219.32748538011697" y="663.7719298245614" fill="hsla(167, 72%, 60%, 1.00)" stroke="none"></rect><rect width="5.7894736842105265" height="5.7894736842105265" x="263.7719298245614" y="663.7719298245614" fill="hsla(167, 72%, 60%, 1.00)" stroke="none"></rect><rect width="5.7894736842105265" height="5.7894736842105265" x="308.2163742690059" y="663.7719298245614" fill="hsla(167, 72%, 60%, 1.00)" stroke="none"></rect><rect width="5.7894736842105265" height="5.7894736842105265" x="352.66081871345034" y="663.7719298245614" fill="hsla(167, 72%, 60%, 1.00)" stroke="none"></rect><rect width="5.7894736842105265" height="5.7894736842105265" x="397.1052631578948" y="663.7719298245614" fill="hsla(167, 72%, 60%, 1.00)" stroke="none"></rect><rect width="5.7894736842105265" height="5.7894736842105265" x="441.54970760233925" y="663.7719298245614"></rect><rect width="5.7894736842105265" height="5.7894736842105265" x="485.9941520467837" y="663.7719298245614" fill="hsla(167, 72%, 60%, 1.00)" stroke="none"></rect><rect width="5.7894736842105265" height="5.7894736842105265" x="530.438596491228" y="663.7719298245614" fill="hsla(167, 72%, 60%, 1.00)" stroke="none"></rect><rect width="5.7894736842105265" height="5.7894736842105265" x="574.8830409356725" y="663.7719298245614" fill="hsla(167, 72%, 60%, 1.00)" stroke="none"></rect><rect width="5.7894736842105265" height="5.7894736842105265" x="619.327485380117" y="663.7719298245614" fill="hsla(167, 72%, 60%, 1.00)" stroke="none"></rect><rect width="5.7894736842105265" height="5.7894736842105265" x="663.7719298245614" y="663.7719298245614" fill="hsla(167, 72%, 60%, 1.00)" stroke="none"></rect><rect width="5.7894736842105265" height="5.7894736842105265" x="708.2163742690059" y="663.7719298245614" fill="hsla(167, 72%, 60%, 1.00)" stroke="none"></rect><rect width="5.7894736842105265" height="5.7894736842105265" x="752.6608187134503" y="663.7719298245614"></rect><rect width="5.7894736842105265" height="5.7894736842105265" x="797.1052631578948" y="663.7719298245614" fill="hsla(167, 72%, 60%, 1.00)" stroke="none"></rect><rect width="5.7894736842105265" height="5.7894736842105265" x="-2.8947368421052633" y="708.2163742690059" fill="hsla(167, 72%, 60%, 1.00)" stroke="none"></rect><rect width="5.7894736842105265" height="5.7894736842105265" x="41.54970760233918" y="708.2163742690059"></rect><rect width="5.7894736842105265" height="5.7894736842105265" x="85.99415204678363" y="708.2163742690059" fill="hsla(167, 72%, 60%, 1.00)" stroke="none"></rect><rect width="5.7894736842105265" height="5.7894736842105265" x="130.43859649122805" y="708.2163742690059" fill="hsla(167, 72%, 60%, 1.00)" stroke="none"></rect><rect width="5.7894736842105265" height="5.7894736842105265" x="174.8830409356725" y="708.2163742690059"></rect><rect width="5.7894736842105265" height="5.7894736842105265" x="219.32748538011697" y="708.2163742690059" fill="hsla(167, 72%, 60%, 1.00)" stroke="none"></rect><rect width="5.7894736842105265" height="5.7894736842105265" x="263.7719298245614" y="708.2163742690059" fill="hsla(167, 72%, 60%, 1.00)" stroke="none"></rect><rect width="5.7894736842105265" height="5.7894736842105265" x="308.2163742690059" y="708.2163742690059" fill="hsla(167, 72%, 60%, 1.00)" stroke="none"></rect><rect width="5.7894736842105265" height="5.7894736842105265" x="352.66081871345034" y="708.2163742690059" fill="hsla(167, 72%, 60%, 1.00)" stroke="none"></rect><rect width="5.7894736842105265" height="5.7894736842105265" x="397.1052631578948" y="708.2163742690059" fill="hsla(167, 72%, 60%, 1.00)" stroke="none"></rect><rect width="5.7894736842105265" height="5.7894736842105265" x="441.54970760233925" y="708.2163742690059"></rect><rect width="5.7894736842105265" height="5.7894736842105265" x="485.9941520467837" y="708.2163742690059" fill="hsla(167, 72%, 60%, 1.00)" stroke="none"></rect><rect width="5.7894736842105265" height="5.7894736842105265" x="530.438596491228" y="708.2163742690059" fill="hsla(167, 72%, 60%, 1.00)" stroke="none"></rect><rect width="5.7894736842105265" height="5.7894736842105265" x="574.8830409356725" y="708.2163742690059" fill="hsla(167, 72%, 60%, 1.00)" stroke="none"></rect><rect width="5.7894736842105265" height="5.7894736842105265" x="619.327485380117" y="708.2163742690059" fill="hsla(167, 72%, 60%, 1.00)" stroke="none"></rect><rect width="5.7894736842105265" height="5.7894736842105265" x="663.7719298245614" y="708.2163742690059" fill="hsla(167, 72%, 60%, 1.00)" stroke="none"></rect><rect width="5.7894736842105265" height="5.7894736842105265" x="708.2163742690059" y="708.2163742690059"></rect><rect width="5.7894736842105265" height="5.7894736842105265" x="752.6608187134503" y="708.2163742690059" fill="hsla(167, 72%, 60%, 1.00)" stroke="none"></rect><rect width="5.7894736842105265" height="5.7894736842105265" x="797.1052631578948" y="708.2163742690059" fill="hsla(167, 72%, 60%, 1.00)" stroke="none"></rect><rect width="5.7894736842105265" height="5.7894736842105265" x="-2.8947368421052633" y="752.6608187134503" fill="hsla(167, 72%, 60%, 1.00)" stroke="none"></rect><rect width="5.7894736842105265" height="5.7894736842105265" x="41.54970760233918" y="752.6608187134503" fill="hsla(167, 72%, 60%, 1.00)" stroke="none"></rect><rect width="5.7894736842105265" height="5.7894736842105265" x="85.99415204678363" y="752.6608187134503" fill="hsla(167, 72%, 60%, 1.00)" stroke="none"></rect><rect width="5.7894736842105265" height="5.7894736842105265" x="130.43859649122805" y="752.6608187134503"></rect><rect width="5.7894736842105265" height="5.7894736842105265" x="174.8830409356725" y="752.6608187134503"></rect><rect width="5.7894736842105265" height="5.7894736842105265" x="219.32748538011697" y="752.6608187134503"></rect><rect width="5.7894736842105265" height="5.7894736842105265" x="263.7719298245614" y="752.6608187134503" fill="hsla(167, 72%, 60%, 1.00)" stroke="none"></rect><rect width="5.7894736842105265" height="5.7894736842105265" x="308.2163742690059" y="752.6608187134503" fill="hsla(167, 72%, 60%, 1.00)" stroke="none"></rect><rect width="5.7894736842105265" height="5.7894736842105265" x="352.66081871345034" y="752.6608187134503" fill="hsla(167, 72%, 60%, 1.00)" stroke="none"></rect><rect width="5.7894736842105265" height="5.7894736842105265" x="397.1052631578948" y="752.6608187134503" fill="hsla(167, 72%, 60%, 1.00)" stroke="none"></rect><rect width="5.7894736842105265" height="5.7894736842105265" x="441.54970760233925" y="752.6608187134503" fill="hsla(167, 72%, 60%, 1.00)" stroke="none"></rect><rect width="5.7894736842105265" height="5.7894736842105265" x="485.9941520467837" y="752.6608187134503"></rect><rect width="5.7894736842105265" height="5.7894736842105265" x="530.438596491228" y="752.6608187134503" fill="hsla(167, 72%, 60%, 1.00)" stroke="none"></rect><rect width="5.7894736842105265" height="5.7894736842105265" x="574.8830409356725" y="752.6608187134503" fill="hsla(167, 72%, 60%, 1.00)" stroke="none"></rect><rect width="5.7894736842105265" height="5.7894736842105265" x="619.327485380117" y="752.6608187134503"></rect><rect width="5.7894736842105265" height="5.7894736842105265" x="663.7719298245614" y="752.6608187134503" fill="hsla(167, 72%, 60%, 1.00)" stroke="none"></rect><rect width="5.7894736842105265" height="5.7894736842105265" x="708.2163742690059" y="752.6608187134503"></rect><rect width="5.7894736842105265" height="5.7894736842105265" x="752.6608187134503" y="752.6608187134503" fill="hsla(167, 72%, 60%, 1.00)" stroke="none"></rect><rect width="5.7894736842105265" height="5.7894736842105265" x="797.1052631578948" y="752.6608187134503" fill="hsla(167, 72%, 60%, 1.00)" stroke="none"></rect><rect width="5.7894736842105265" height="5.7894736842105265" x="-2.8947368421052633" y="797.1052631578948" fill="hsla(167, 72%, 60%, 1.00)" stroke="none"></rect><rect width="5.7894736842105265" height="5.7894736842105265" x="41.54970760233918" y="797.1052631578948" fill="hsla(167, 72%, 60%, 1.00)" stroke="none"></rect><rect width="5.7894736842105265" height="5.7894736842105265" x="85.99415204678363" y="797.1052631578948" fill="hsla(167, 72%, 60%, 1.00)" stroke="none"></rect><rect width="5.7894736842105265" height="5.7894736842105265" x="130.43859649122805" y="797.1052631578948" fill="hsla(167, 72%, 60%, 1.00)" stroke="none"></rect><rect width="5.7894736842105265" height="5.7894736842105265" x="174.8830409356725" y="797.1052631578948" fill="hsla(167, 72%, 60%, 1.00)" stroke="none"></rect><rect width="5.7894736842105265" height="5.7894736842105265" x="219.32748538011697" y="797.1052631578948" fill="hsla(167, 72%, 60%, 1.00)" stroke="none"></rect><rect width="5.7894736842105265" height="5.7894736842105265" x="263.7719298245614" y="797.1052631578948" fill="hsla(167, 72%, 60%, 1.00)" stroke="none"></rect><rect width="5.7894736842105265" height="5.7894736842105265" x="308.2163742690059" y="797.1052631578948" fill="hsla(167, 72%, 60%, 1.00)" stroke="none"></rect><rect width="5.7894736842105265" height="5.7894736842105265" x="352.66081871345034" y="797.1052631578948" fill="hsla(167, 72%, 60%, 1.00)" stroke="none"></rect><rect width="5.7894736842105265" height="5.7894736842105265" x="397.1052631578948" y="797.1052631578948" fill="hsla(167, 72%, 60%, 1.00)" stroke="none"></rect><rect width="5.7894736842105265" height="5.7894736842105265" x="441.54970760233925" y="797.1052631578948" fill="hsla(167, 72%, 60%, 1.00)" stroke="none"></rect><rect width="5.7894736842105265" height="5.7894736842105265" x="485.9941520467837" y="797.1052631578948" fill="hsla(167, 72%, 60%, 1.00)" stroke="none"></rect><rect width="5.7894736842105265" height="5.7894736842105265" x="530.438596491228" y="797.1052631578948" fill="hsla(167, 72%, 60%, 1.00)" stroke="none"></rect><rect width="5.7894736842105265" height="5.7894736842105265" x="574.8830409356725" y="797.1052631578948" fill="hsla(167, 72%, 60%, 1.00)" stroke="none"></rect><rect width="5.7894736842105265" height="5.7894736842105265" x="619.327485380117" y="797.1052631578948" fill="hsla(167, 72%, 60%, 1.00)" stroke="none"></rect><rect width="5.7894736842105265" height="5.7894736842105265" x="663.7719298245614" y="797.1052631578948" fill="hsla(167, 72%, 60%, 1.00)" stroke="none"></rect><rect width="5.7894736842105265" height="5.7894736842105265" x="708.2163742690059" y="797.1052631578948" fill="hsla(167, 72%, 60%, 1.00)" stroke="none"></rect><rect width="5.7894736842105265" height="5.7894736842105265" x="752.6608187134503" y="797.1052631578948" fill="hsla(167, 72%, 60%, 1.00)" stroke="none"></rect><rect width="5.7894736842105265" height="5.7894736842105265" x="797.1052631578948" y="797.1052631578948" fill="hsla(167, 72%, 60%, 1.00)" stroke="none"></rect></g></svg>